<svg width="871" height="820" viewBox="0 0 871 820" fill="none" xmlns="http://www.w3.org/2000/svg">
<path d="M183.666 699.896L176.472 717.457L145.729 644.182H159.524L183.666 699.896ZM220.808 699.896L213.411 717.521L194.687 672.612L186.606 692.502L180.134 677.234L195.011 641.29L220.808 699.896ZM216.768 676.549L230.073 644.145H244.266L223.869 692.798L216.768 676.549Z" fill="#141211"/>
<path d="M241.695 676.355C242.005 672.432 242.903 668.578 244.358 664.922C246.145 660.559 248.753 656.581 252.042 653.203C257.01 648.07 263.422 644.568 270.427 643.162C277.432 641.755 284.699 642.511 291.265 645.328C295.557 647.173 299.441 649.849 302.693 653.203C305.962 656.576 308.538 660.557 310.275 664.922C311.718 668.582 312.615 672.434 312.938 676.355H300.132C299.589 671.218 297.305 666.42 293.659 662.759C291.512 660.616 288.961 658.919 286.153 657.769C283.345 656.619 280.337 656.037 277.303 656.058C271.647 656.005 266.174 658.058 261.949 661.816C257.724 665.575 255.05 670.771 254.446 676.392L241.695 676.355ZM312.938 681.965C312.605 685.881 311.708 689.729 310.275 693.389C308.492 697.701 305.921 701.644 302.693 705.016C299.387 708.304 295.516 710.972 291.265 712.89C284.704 715.734 277.43 716.503 270.419 715.095C263.408 713.688 256.996 710.171 252.042 705.016C248.797 701.638 246.193 697.698 244.358 693.389C242.903 689.736 242.005 685.885 241.695 681.965H254.409C255.089 687.059 257.406 691.794 261.011 695.459C264.055 698.527 267.903 700.675 272.114 701.655C276.324 702.634 280.725 702.406 284.812 700.996C288.899 699.587 292.504 697.053 295.214 693.686C297.924 690.319 299.629 686.257 300.132 681.965H312.938Z" fill="#141211"/>
<path d="M318.255 676.355C318.565 672.432 319.463 668.578 320.918 664.922C322.709 660.561 325.317 656.584 328.602 653.203C333.57 648.07 339.982 644.568 346.987 643.162C353.992 641.755 361.259 642.511 367.824 645.328C372.116 647.173 376.001 649.849 379.253 653.203C382.525 656.576 385.104 660.557 386.844 664.922C388.28 668.583 389.174 672.435 389.498 676.355H376.692C376.145 671.219 373.862 666.423 370.219 662.759C368.071 660.617 365.52 658.922 362.712 657.771C359.904 656.621 356.897 656.039 353.862 656.058C348.205 656.003 342.73 658.054 338.503 661.813C334.276 665.572 331.6 670.769 330.996 676.392L318.255 676.355ZM389.451 681.965C389.117 685.88 388.224 689.727 386.798 693.389C385.011 697.702 382.437 701.645 379.207 705.016C375.9 708.304 372.029 710.972 367.778 712.89C361.217 715.734 353.943 716.503 346.932 715.095C339.922 713.688 333.509 710.171 328.556 705.016C325.314 701.635 322.71 697.696 320.872 693.389C319.417 689.736 318.519 685.885 318.209 681.965H330.923C331.603 687.059 333.92 691.794 337.524 695.459C340.568 698.527 344.417 700.675 348.627 701.655C352.838 702.634 357.239 702.406 361.326 700.996C365.412 699.587 369.018 697.053 371.728 693.686C374.438 690.319 376.142 686.257 376.645 681.965H389.451Z" fill="#141211"/>
<path d="M409.791 714.175H396.791V644.145H409.791V714.175ZM458.279 679.303C458.352 684.796 457.242 690.239 455.024 695.265C453.109 699.504 450.242 703.246 446.647 706.199C443.257 708.935 439.379 711.005 435.218 712.299C431.308 713.583 427.212 714.208 423.097 714.148H415.431V700.746H422.329C430.309 700.746 435.135 698.482 437.798 696.513C442.726 693.065 445.288 687.16 445.288 679.276C445.288 671.392 442.726 665.486 437.798 661.946C433.859 658.989 428.552 657.51 422.329 657.51H415.431V644.145H423.115C427.224 644.166 431.308 644.788 435.237 645.994C439.4 647.287 443.278 649.36 446.665 652.103C450.282 655.077 453.151 658.856 455.043 663.139C457.295 668.224 458.4 673.743 458.279 679.303Z" fill="#141211"/>
<path d="M494.637 699.896L487.443 717.457L456.699 644.182H470.495L494.637 699.896ZM531.779 699.896L524.382 717.521L505.658 672.612L497.577 692.502L491.105 677.234L505.982 641.29L531.779 699.896ZM527.738 676.549L541.044 644.145H555.237L534.839 692.798L527.738 676.549Z" fill="#141211"/>
<path d="M585.981 700.182H561.839L555.431 714.175H540.85L567.155 660.883L573.757 674.673L566.859 689.349H580.729L585.981 700.182ZM570.502 654.09L576.975 640.993L613.433 714.175H599.138L570.502 654.09Z" fill="#141211"/>
<path d="M639.081 701.956L631.499 717.669L596.123 644.099H610.704L639.081 701.956ZM635.244 681.475L652.387 644.145H666.931L642.197 695.561L635.244 681.475Z" fill="#141211"/>
<path d="M688.448 714.175H675.254V644.145H688.458L688.448 714.175ZM724.61 644.145V657.269H694.098V644.145H724.61ZM718.009 684.128H694.061V671.032H718.009V684.128ZM694.061 701.07H724.574V714.175H694.061V701.07Z" fill="#141211"/>
<path d="M229.529 802.274L222.336 819.835L191.592 746.561H205.387L229.529 802.274ZM266.681 802.274L259.284 819.909L240.56 774.991L232.479 794.89L226.006 779.621L240.884 743.668L266.681 802.274ZM262.64 778.937L275.945 746.533H290.129L269.732 795.186L262.64 778.937Z" fill="#141211"/>
<path d="M287.564 778.734C287.876 774.814 288.773 770.963 290.227 767.31C292.821 760.695 297.347 755.015 303.217 751.009C309.087 747.003 316.027 744.857 323.135 744.851C327.942 744.858 332.699 745.829 337.125 747.707C341.416 749.556 345.3 752.235 348.553 755.59C351.827 758.962 354.406 762.944 356.144 767.31C357.584 770.968 358.481 774.816 358.807 778.734H345.992C345.445 773.6 343.162 768.807 339.519 765.147C337.371 763.005 334.82 761.309 332.012 760.159C329.205 759.009 326.197 758.427 323.163 758.447C317.514 758.393 312.047 760.439 307.823 764.188C303.6 767.937 300.92 773.121 300.306 778.734H287.564ZM358.807 784.353C358.47 788.268 357.573 792.115 356.144 795.777C354.357 800.087 351.783 804.027 348.553 807.395C345.251 810.691 341.379 813.362 337.125 815.278C330.565 818.126 323.291 818.897 316.28 817.488C309.269 816.078 302.859 812.556 297.911 807.395C294.661 804.024 292.057 800.086 290.227 795.777C288.773 792.123 287.876 788.273 287.564 784.353H300.278C300.951 789.449 303.269 794.187 306.88 797.847C309.923 800.916 313.77 803.065 317.981 804.045C322.191 805.025 326.592 804.796 330.678 803.387C334.765 801.977 338.37 799.443 341.079 796.075C343.788 792.708 345.491 788.645 345.992 784.353H358.807Z" fill="#141211"/>
<path d="M429.063 803.355V819.806L366.096 760.119V743.575L429.063 803.355ZM379.133 780.313V816.553H366.123V767.901L379.133 780.313ZM415.989 783.086V746.551H429.091V795.6L415.989 783.086Z" fill="#141211"/>
<path d="M451.326 816.553H438.316V746.533H451.326V816.553ZM499.804 781.691C499.883 787.181 498.772 792.623 496.549 797.643C494.646 801.887 491.781 805.63 488.181 808.577C484.791 811.32 480.909 813.393 476.744 814.686C472.837 815.971 468.744 816.596 464.631 816.535H456.938V803.143H463.836C471.825 803.143 476.652 800.878 479.314 798.91C484.233 795.462 486.795 789.556 486.795 781.672C486.795 773.789 484.233 767.882 479.314 764.333C475.366 761.385 470.068 759.906 463.836 759.906H456.938V746.514H464.631C468.738 746.534 472.819 747.157 476.744 748.363C480.909 749.656 484.791 751.729 488.181 754.472C491.797 757.44 494.664 761.218 496.549 765.498C498.816 770.59 499.928 776.119 499.804 781.691Z" fill="#141211"/>
<path d="M521.286 816.554H508.082V746.533H521.286V816.554ZM557.448 746.533V759.63H526.935V746.533H557.448ZM550.846 786.516H526.898V773.419H550.846V786.516ZM526.898 803.457H557.411V816.554H526.898V803.457Z" fill="#141211"/>
<path d="M580.017 816.554H566.721V746.533H580.017V816.554ZM621.107 816.554H604.057L589.466 791.738H585.629V777.948H596.466C599.915 777.948 602.374 777.163 603.955 775.49C605.284 773.661 606.007 771.463 606.026 769.202C606.044 766.942 605.356 764.733 604.057 762.883C602.374 761.201 599.915 760.323 596.466 760.323H585.629V746.533H597.455C602.791 746.586 607.93 748.554 611.935 752.079C615.19 755.036 619.027 760.397 619.027 769.122C619.027 775.323 617.057 780.739 613.479 784.686C611.274 787.119 608.541 789.016 605.49 790.231L604.806 790.518L621.107 816.554Z" fill="#141211"/>
<path d="M679.728 795.481C679.806 799.133 678.993 802.749 677.361 806.017C675.853 808.855 673.648 811.262 670.953 813.013C666.456 815.951 661.249 817.618 655.882 817.838V804.538C658.746 804.305 661.499 803.32 663.861 801.682C666.228 800.111 667.606 798.142 667.606 796.266C667.606 793.706 666.422 791.931 663.667 790.554C660.606 789.075 656.372 788.096 652.137 787.301L651.739 787.208C645.923 786.127 640.015 784.843 635.29 781.885C632.602 780.389 630.383 778.174 628.882 775.489C627.157 772.355 626.305 768.815 626.414 765.239C626.353 762.119 627.102 759.037 628.588 756.293C630.074 753.549 632.246 751.237 634.893 749.582V749.481C639.516 746.621 644.824 745.057 650.26 744.952V758.344C647.752 758.474 645.287 759.04 642.974 760.017C640.206 761.305 638.825 763.08 638.831 765.341C638.831 768.391 640.117 770.267 643.066 771.746C646.016 773.225 650.26 774.204 654.994 775.193C661.198 776.376 666.718 777.55 671.249 780.212C673.803 781.568 675.922 783.619 677.361 786.127C679.004 788.964 679.823 792.203 679.728 795.481ZM650.26 817.939C644.558 817.731 638.96 816.356 633.811 813.901C631.686 812.886 629.726 811.558 627.995 809.963V793.022C629.697 794.904 631.577 796.619 633.607 798.142C636.121 800.009 638.873 801.531 641.79 802.671C644.502 803.717 647.358 804.341 650.26 804.519V817.939ZM655.882 745.054C662.483 745.544 666.912 747.115 669.677 748.594C671.507 749.442 673.148 750.649 674.503 752.143L674.106 768.095C674.106 768.095 668.392 760.415 655.882 758.742V745.054Z" fill="#141211"/>
<path d="M767.282 710.653C765.107 710.654 762.976 710.042 761.135 708.886C759.293 707.731 757.815 706.078 756.871 704.12C755.927 702.162 755.556 699.976 755.799 697.816C756.043 695.656 756.892 693.609 758.248 691.91C816.768 618.386 847.697 529.751 847.697 435.589C847.697 208.4 662.771 23.561 435.498 23.561C208.225 23.561 23.2993 208.41 23.2993 435.589C23.2993 527.875 53.1277 615.114 109.567 687.852C110.497 689.051 111.182 690.422 111.582 691.886C111.982 693.35 112.09 694.878 111.899 696.383C111.709 697.888 111.224 699.342 110.471 700.659C109.719 701.977 108.714 703.134 107.514 704.064C106.315 704.993 104.943 705.678 103.479 706.078C102.015 706.478 100.486 706.586 98.9802 706.395C97.4743 706.205 96.0205 705.72 94.7021 704.967C93.3837 704.215 92.2264 703.211 91.2963 702.012C41.2456 637.468 10.3669 560.153 2.18809 478.9C-5.99075 397.647 8.86009 315.732 45.044 242.515C81.2278 169.298 137.285 107.732 206.812 64.8492C276.339 21.9665 356.531 -0.502893 438.227 0.00853992C519.922 0.519973 599.827 23.9913 668.811 67.741C737.795 111.491 793.077 173.755 828.34 247.419C863.604 321.083 877.427 403.177 868.231 484.321C859.034 565.466 827.19 642.388 776.334 706.3C775.251 707.661 773.874 708.759 772.307 709.513C770.739 710.267 769.021 710.657 767.282 710.653Z" fill="#A56738"/>
<path d="M287.226 545.556L375.935 210.758H392.532L295.446 576.952H278.858L181.967 210.758H198.555L287.226 545.556ZM298.322 464.398L290.805 495.822L215.142 210.785H231.518L298.322 464.398ZM314.965 403.148L306.782 433.648L248.078 210.758H264.231L314.965 403.148ZM331.553 339.68L323.148 370.642L280.893 210.748H297.49L331.553 339.68ZM328.455 576.952H312.09L409.175 210.758H425.329L328.455 576.952ZM361.418 576.952H345.052L441.944 210.758H458.319L361.418 576.952ZM394.603 576.952H378.015L474.907 211.201L474.685 210.758H491.495V211.201L534.638 359.801L574.24 210.758H590.828L493.742 576.952H477.098L433.743 428.574L394.603 576.952ZM442.166 397.399L485.087 546.877L493.492 515.259L450.349 366.215L442.166 397.399ZM458.532 335.04L501.675 484.075L510.08 452.9L466.946 303.635L458.532 335.04ZM474.907 273.116L518.263 422.16L526.455 390.736L483.534 241.248L474.907 273.116ZM526.686 576.952H510.32L607.406 210.758H623.476L526.686 576.952ZM559.649 576.952H543.283L640.119 210.758H656.495L559.649 576.952ZM592.834 576.952H576.246L673.138 210.758H689.781L592.834 576.952Z" fill="#A56738"/>
<path d="M375.441 210.453H491.251L534.422 359.081L574.264 210.453H698.229L588.115 577.036H477.382L419.13 378.148L375.441 210.453Z" fill="#A56738"/>
</svg>
